<svg xmlns="http://www.w3.org/2000/svg" width="16" height="17" viewBox="0 0 16 17" fill="none">
  <path d="M6.06004 6.5C6.21678 6.05445 6.52614 5.67874 6.93334 5.43942C7.34055 5.20011 7.8193 5.11263 8.28483 5.19248C8.75035 5.27232 9.17259 5.51435 9.47676 5.87569C9.78093 6.23702 9.94741 6.69435 9.94671 7.16667C9.94671 8.5 7.94671 9.16667 7.94671 9.16667M8.00004 11.8333H8.00671M14.6667 8.5C14.6667 12.1819 11.6819 15.1667 8.00004 15.1667C4.31814 15.1667 1.33337 12.1819 1.33337 8.5C1.33337 4.8181 4.31814 1.83333 8.00004 1.83333C11.6819 1.83333 14.6667 4.8181 14.6667 8.5Z" stroke="#98A2B3" stroke-width="1.33333" stroke-linecap="round" stroke-linejoin="round"/>
</svg>